<svg xmlns="http://www.w3.org/2000/svg" width="114.675" height="48" viewBox="0 0 114.675 48">
  <g id="グループ_1210" data-name="グループ 1210" transform="translate(-338.909 -716.51)">
    <path id="パス_600" data-name="パス 600" d="M378.431,716.51H347.4a8.507,8.507,0,0,0-8.495,8.5v31a8.507,8.507,0,0,0,8.495,8.5h31.027a8.507,8.507,0,0,0,8.5-8.5v-.972h-2.009v.972a6.494,6.494,0,0,1-6.486,6.488H347.4a6.494,6.494,0,0,1-6.485-6.488v-31a6.494,6.494,0,0,1,6.485-6.487h31.027a6.494,6.494,0,0,1,6.486,6.487v.972h2.009v-.972A8.507,8.507,0,0,0,378.431,716.51Z" transform="translate(0)"/>
    <rect id="長方形_652" data-name="長方形 652" width="1.935" height="18.752" transform="translate(384.975 731.134)"/>
    <path id="パス_601" data-name="パス 601" d="M356.407,753.671V755.8a12.353,12.353,0,0,0,4.807,1.059,6.491,6.491,0,0,0,5.477-2.382,4.2,4.2,0,0,0,.594-3.772c-.428-1.29-1.7-3.086-5.319-4.318-1.954-.665-3.224-1.617-3.576-2.68a1.9,1.9,0,0,1,.3-1.74c1-1.462,4.191-1.927,7.642-.186v-2.132c-4.232-1.79-7.852-.795-9.238,1.223a3.84,3.84,0,0,0-.54,3.445c.387,1.168,1.534,2.793,4.79,3.9,2.237.762,3.7,1.862,4.106,3.1a2.3,2.3,0,0,1-.352,2.066C363.915,755.1,360.37,755.645,356.407,753.671Z" transform="translate(-5.722 -7.276)"/>
    <path id="パス_602" data-name="パス 602" d="M391.258,757.154h2.1l-7.6-17.868a.968.968,0,0,0-.891-.589h0a.967.967,0,0,0-.89.592l-6.811,16.181a.968.968,0,0,0,.893,1.344h6.811v-1.936h-5.354l5.358-12.73Z" transform="translate(-12.512 -7.269)"/>
    <path id="パス_603" data-name="パス 603" d="M468.916,740.194h5.04v16.816h1.936V740.194h5.04v-1.936H468.916Z" transform="translate(-42.599 -7.125)"/>
    <path id="パス_604" data-name="パス 604" d="M453.852,738.7h0a.967.967,0,0,0-.89.592l-6.811,16.181a.968.968,0,0,0,.892,1.344h6.811v-1.936H448.5l5.358-12.73,6.385,15.006h2.1l-7.6-17.868A.968.968,0,0,0,453.852,738.7Z" transform="translate(-35.117 -7.269)"/>
    <path id="パス_605" data-name="パス 605" d="M435.179,746.778h-8.09v1.948h7.051a7.117,7.117,0,1,1-7.051-8.09v-1.948a9.064,9.064,0,1,0,9.065,9.065A.974.974,0,0,0,435.179,746.778Z" transform="translate(-25.926 -7.266)"/>
    <path id="パス_606" data-name="パス 606" d="M503.626,740.636v-1.948H492.585a.974.974,0,0,0-.974.975v16.18a.973.973,0,0,0,.974.974h11.041v-1.948H493.559v-6.142h5.206v-1.948h-5.206v-6.142Z" transform="translate(-50.042 -7.266)"/>
  </g>
</svg>
